<svg xmlns="http://www.w3.org/2000/svg" xmlns:xlink="http://www.w3.org/1999/xlink" viewBox="0 0 26.48 26.481">
  <defs>
    <style>
      .cls-1 {
        fill: url(#linear-gradient);
      }
    </style>
    <linearGradient id="linear-gradient" x1="-0.129" y1="-0.164" x2="1.511" y2="1.18" gradientUnits="objectBoundingBox">
      <stop offset="0" stop-color="#9cf4ed"/>
      <stop offset="1" stop-color="#acacff"/>
    </linearGradient>
  </defs>
  <g id="Group_3030" data-name="Group 3030" transform="translate(0 0)">
    <path id="Intersection_4" data-name="Intersection 4" class="cls-1" d="M.165,26.306a.569.569,0,0,1,.012-.812L3.867,21.8,3.073,18.77a1.789,1.789,0,0,0-.064-.23,1.241,1.241,0,0,1,.213-1.388L14.68,5.688,13.419,4.427a.574.574,0,0,1,.812-.812l8.631,8.642a.574.574,0,0,1-.812.812l-1.256-1.255L9.337,23.278a1.043,1.043,0,0,1-.766.322,2,2,0,0,1-.587-.1c-.075-.017-.161-.046-.247-.063l-3.074-.795L.988,26.306l-.012.012a.555.555,0,0,1-.394.163A.591.591,0,0,1,.165,26.306Zm3.869-8.337c.006.011.046.149.075.253.023.081.052.167.076.265l.777,2.937a.257.257,0,0,1,.064.04.587.587,0,0,1,.058.092l2.924.754a2.944,2.944,0,0,1,.294.076c.092.029.241.057.265.063L19.966,11,15.475,6.512l-.915.915,1.382,1.381a.574.574,0,0,1-.812.812L13.748,8.239l-1.2,1.2,1.094,1.094a.574.574,0,0,1-.812.812l-1.094-1.094-1.279,1.284a.587.587,0,0,1,.311.149l1.727,1.727a.574.574,0,0,1-.812.812L9.953,12.5a.586.586,0,0,1-.15-.31L8.157,13.835a.567.567,0,0,1,.311.15l1.152,1.151a.574.574,0,0,1-.812.812L7.655,14.8a.587.587,0,0,1-.149-.311L5.94,16.058,7.9,18.015a.574.574,0,0,1-.812.812L5.128,16.87ZM20.317,8.457a.569.569,0,0,1,.012-.812L23.374,4.6,21.883,3.109,18.837,6.154l-.012.012a.574.574,0,0,1-.8-.824L21.071,2.3,19.752.972a.582.582,0,0,1,0-.8A.579.579,0,0,1,20.564.16l5.758,5.758a.576.576,0,0,1-.818.812L24.186,5.412,21.14,8.457l-.012.012a.568.568,0,0,1-.812-.012Z" transform="translate(0 0)"/>
  </g>
</svg>
