<svg xmlns="http://www.w3.org/2000/svg" xmlns:xlink="http://www.w3.org/1999/xlink" viewBox="0 0 26.67 30.096">
  <defs>
    <style>
      .cls-1 {
        fill: url(#linear-gradient);
      }
    </style>
    <linearGradient id="linear-gradient" x1="-0.129" y1="-0.164" x2="1.511" y2="1.18" gradientUnits="objectBoundingBox">
      <stop offset="0" stop-color="#9cf4ed"/>
      <stop offset="1" stop-color="#acacff"/>
    </linearGradient>
  </defs>
  <g id="Group_2765" data-name="Group 2765" transform="translate(3.344 0) rotate(7)">
    <path id="Intersection_3" data-name="Intersection 3" class="cls-1" d="M17.864,26.9a3.712,3.712,0,0,1,3.7-6.436,2.409,2.409,0,0,0-.412-2.6,2.186,2.186,0,0,0-3.129.012l-6.172,5.5A5.594,5.594,0,0,1,7.864,25.18,5.347,5.347,0,0,1,4.042,23.45C2.8,22.194,2.254,18.79,2.288,17.214l-.005-.006a7.827,7.827,0,0,1,0-11.048L7.612.83a2.839,2.839,0,0,1,4.011,0l.034.034a1.724,1.724,0,1,1-.681.934l-.161-.16a1.734,1.734,0,0,0-2.389,0L3.1,6.967A6.625,6.625,0,0,0,1.411,9.821a.6.6,0,0,1,.155.109l7.456,8.018a.541.541,0,0,1,.126.257,6.6,6.6,0,0,0,3.376-1.816l5.33-5.33a1.692,1.692,0,0,0,0-2.389l-.161-.161a1.593,1.593,0,0,1-.492.08,1.719,1.719,0,1,1,1.433-.761l.034.034a2.839,2.839,0,0,1,0,4.011l-5.33,5.33a7.811,7.811,0,0,1-9.857.98c.138,1.6.659,3.725,1.381,4.459a4.229,4.229,0,0,0,3,1.387,4.5,4.5,0,0,0,3.192-1.5l6.166-5.5a3.319,3.319,0,0,1,2.362-.98H19.6a3.332,3.332,0,0,1,2.366.986,3.583,3.583,0,0,1,.522,4.114v.006h-.012A3.713,3.713,0,0,1,17.864,26.9Zm.126-4.957a2.577,2.577,0,0,0,3.645,3.645l.023-.023a2.577,2.577,0,0,0-3.668-3.622ZM1.153,11.706a6.653,6.653,0,0,0,6.654,6.642h.006L1.176,11.2C1.165,11.363,1.153,11.534,1.153,11.706ZM16.787,6.492a.571.571,0,1,0,.405-.167A.571.571,0,0,0,16.787,6.492ZM12.208,1.907a.571.571,0,0,0,.807.808.571.571,0,0,0-.407-.975A.553.553,0,0,0,12.208,1.907Z" transform="translate(-0.001 0)"/>
  </g>
</svg>
