<?xml version="1.0" encoding="UTF-8"?>
<svg width="110px" height="44px" viewBox="0 0 110 44" version="1.1" xmlns="http://www.w3.org/2000/svg" xmlns:xlink="http://www.w3.org/1999/xlink">
    <!-- Generator: Sketch 55 (78076) - https://sketchapp.com -->
    <title>upgrade copy</title>
    <desc>Created with Sketch.</desc>
    <defs>
        <linearGradient x1="7.14565326%" y1="38.2605863%" x2="92.8570958%" y2="61.7403747%" id="linearGradient-1">
            <stop stop-color="#56D9FE" offset="0%"></stop>
            <stop stop-color="#3C84F2" offset="36.39%"></stop>
            <stop stop-color="#1C60B1" offset="70.77%"></stop>
            <stop stop-color="#004179" offset="100%"></stop>
        </linearGradient>
    </defs>
    <g id="Page-1" stroke="none" stroke-width="1" fill="none" fill-rule="evenodd">
        <g id="Artboard" transform="translate(-792.000000, -497.000000)">
            <g id="upgrade-copy" transform="translate(792.000000, 497.000000)">
                <path d="M103.814976,44 L6.19331818,44 C2.76828853,44 0,40.2528014 0,35.6181085 L0,8.38189153 C0,3.75705961 2.77660171,0 6.19331818,0 L103.806663,0 C107.231693,0 109.999981,3.74719857 109.999981,8.38189153 L109.999981,35.6181085 C110.008295,40.2429404 107.231693,44 103.814976,44 Z" id="Path" fill="url(#linearGradient-1)" fill-rule="nonzero"></path>
                <g id="Group" transform="translate(7.000000, 11.000000)" fill="#FFFFFF">
                    <path d="M21.3130003,19.4860903 L19.7430003,5.80609009 C19.7030003,5.43609008 19.3030003,5.14609008 18.8230003,5.14609008 L15.5930002,5.14609008 L15.5930002,4.00609006 C15.5930002,1.87609003 13.3830002,0.146090002 10.6630002,0.146090002 C7.94300012,0.146090002 5.73300009,1.87609003 5.73300009,4.00609006 L5.73300009,5.14609008 L2.49300004,5.14609008 C2.01300003,5.14609008 1.61300002,5.43609008 1.57300002,5.80609009 L0.00300000004,19.5460903 C-0.0170000003,19.7460903 0.0630000009,19.9460903 0.243000004,20.0960903 C0.423000006,20.2460903 0.66300001,20.3360903 0.923000014,20.3360903 L20.3930003,20.3360903 C20.3930003,20.3360903 20.3930003,20.3360903 20.3930003,20.3360903 C20.9030003,20.3360903 21.3130003,20.0060903 21.3130003,19.6060903 C21.3330003,19.5660903 21.3230003,19.5260903 21.3130003,19.4860903 Z M7.59300011,3.99609006 C7.59300011,2.66609004 8.97300013,1.58609002 10.6730002,1.58609002 C12.3730002,1.58609002 13.7530002,2.66609004 13.7530002,3.99609006 L13.7530002,5.13609008 L7.59300011,5.13609008 L7.59300011,3.99609006 L7.59300011,3.99609006 Z M1.94300003,18.8760903 L3.35300005,6.5860901 L5.74300009,6.5860901 L5.74300009,7.88609012 C5.74300009,8.28609012 6.16300009,8.61609013 6.6630001,8.61609013 C7.17300011,8.61609013 7.58300011,8.28609012 7.58300011,7.88609012 L7.58300011,6.5860901 L13.7430002,6.5860901 L13.7430002,7.88609012 C13.7430002,8.28609012 14.1630002,8.61609013 14.6630002,8.61609013 C15.1730002,8.61609013 15.5830002,8.28609012 15.5830002,7.88609012 L15.5830002,6.5860901 L17.9830003,6.5860901 L19.3930003,18.8760903 L1.94300003,18.8760903 L1.94300003,18.8760903 Z" id="Shape" fill-rule="nonzero"></path>
                    <text id="Upgrade" font-family="Helvetica" font-size="18.0000003" font-weight="normal">
                        <tspan x="27.5852204" y="18">Upgrade</tspan>
                    </text>
                </g>
            </g>
        </g>
    </g>
</svg>