<svg xmlns="http://www.w3.org/2000/svg" viewBox="0 0 43.314 43.314">
  <defs>
    <style>
      .cls-1 {
        fill: #004179;
      }
    </style>
  </defs>
  <path id="Goals" class="cls-1" d="M38.5,43.314H28.877V38.5H38.5V28.877h4.812V38.5A4.818,4.818,0,0,1,38.5,43.314Zm-24.064,0H4.812A4.818,4.818,0,0,1,0,38.5V28.877H4.812V38.5h9.625v4.812Zm7.22-12.032a9.625,9.625,0,1,1,9.625-9.625A9.636,9.636,0,0,1,21.657,31.282ZM43.314,14.438H38.5V4.812H28.877V0H38.5a4.818,4.818,0,0,1,4.812,4.812v9.625Zm-38.5,0H0V4.812A4.818,4.818,0,0,1,4.812,0h9.625V4.812H4.812v9.625Z"/>
</svg>
