<svg xmlns="http://www.w3.org/2000/svg"><defs><font id="icomoon" horiz-adv-x="1024"><font-face units-per-em="1024" ascent="960" descent="-64"/><glyph horiz-adv-x="512"/><glyph unicode="" glyph-name="checked" d="M920 448c0-225.335-182.665-408-408-408S104 222.665 104 448s182.665 408 408 408 408-182.665 408-408zM736.36 600.361c5.994 6.738 5.379 17.058-1.353 23.038-6.738 5.991-17.058 5.379-23.038-1.35L461.14 339.871 310.043 460.754c-7.039 5.634-17.316 4.49-22.937-2.549s-4.49-17.313 2.549-22.937l163.2-130.56c6.78-5.43 16.623-4.589 22.394 1.905l261.12 293.76z"/><glyph unicode="" glyph-name="unchecked" d="M512 824.611c-100.599 0-195.172-39.179-266.298-110.305S135.397 548.591 135.397 448.008c0-100.599 39.179-195.172 110.305-266.298S411.417 71.405 512 71.405c100.599 0 195.172 39.179 266.298 110.305s110.305 165.715 110.305 266.298c0 100.596-39.179 195.172-110.305 266.298S612.583 824.611 512 824.611zM512 856c225.341 0 408-182.659 408-408S737.341 40 512 40 104 222.659 104 448s182.659 408 408 408z"/><glyph unicode="" glyph-name="more" horiz-adv-x="1126" d="M-.011 589.022V306.974c0-50.249 40.736-90.997 90.997-90.997h937.076c50.249 0 90.997 40.736 90.997 90.997v282.048c0 50.249-40.736 90.997-90.997 90.997H90.986c-50.249 0-90.997-40.736-90.997-90.997zm36.393-9.107c0 35.163 28.526 63.685 63.685 63.685h918.882c35.163 0 63.685-28.526 63.685-63.685V316.072c0-35.163-28.526-63.685-63.685-63.685H100.067c-35.163 0-63.685 28.526-63.685 63.685v263.843zm230.658-19.751c56.973 0 103.323-46.358 103.323-103.352 0-56.944-46.358-103.265-103.323-103.294-56.944 0-103.294 46.329-103.294 103.294 0 56.973 46.329 103.352 103.294 103.352zm-.001-36.393c-36.903 0-66.912-30.034-66.912-66.95 0-36.874 30.008-66.867 66.912-66.896 36.903 0 66.921 30.005 66.921 66.896 0 36.903-30.008 66.95-66.921 66.95zM653.981 456.8c0 57-46.358 103.352-103.323 103.352S447.364 513.794 447.364 456.8c0-56.944 46.352-103.294 103.294-103.294 56.973.017 103.323 46.352 103.323 103.294zM550.65 389.935c-36.903 0-66.912 30.005-66.912 66.896 0 36.924 30.008 66.95 66.912 66.95s66.921-30.034 66.921-66.95c0-36.874-30.008-66.896-66.921-66.896zm180.303 66.894c0 56.973 46.329 103.352 103.323 103.352s103.323-46.373 103.323-103.352c0-56.944-46.358-103.294-103.323-103.294s-103.323 46.329-103.323 103.294zm36.386 0c0-36.874 30.008-66.896 66.921-66.896s66.921 30.005 66.921 66.896c0 36.903-30.008 66.95-66.921 66.95-36.903 0-66.921-30.034-66.921-66.95z"/><glyph unicode="" glyph-name="info" d="M512 847.975c-220.917 0-400-179.083-400-400s179.083-400 400-400 400 179.075 400 400-179.083 400-400 400zm-1.994-623.698S491.443 211.941 478.76 212c-1.125-.523-1.797-.824-1.797-.824l.025.824a40.814 40.814 0 0 0-8.046 1.175l-4.012.985c-22.157 5.495-33.877 27.467-28.372 49.612l44.766 180.498c12.951 52.139-41.067-11.083-52.139 12.927-7.317 15.875 42.018 49.194 78.052 74.32 0 0 18.539 12.325 31.234 12.275 1.136.525 1.809.824 1.809.824l-.046-.824a41.157 41.157 0 0 0 8.07-1.172l4.012-.997c22.157-5.495 35.652-27.908 30.157-50.052l-30.828-124.348-13.948-56.163c-12.927-52.139 40.185 11.327 51.258-12.72 7.317-15.861-42.911-48.951-78.933-74.075zm78.169 388.65c-7.698-31.015-39.075-49.925-70.075-42.225-31.025 7.698-49.925 39.073-42.225 70.086s39.075 49.925 70.075 42.225c31.025-7.686 49.925-39.073 42.225-70.086z"/><glyph unicode="" glyph-name="bell" d="M418.029 165.99h187.975c0-51.908-42.085-93.989-93.989-93.989s-93.989 42.085-93.989 93.989zm-235.006 47.222c-24.06 2.378-42.696 22.494-42.696 46.973s18.64 44.623 42.508 46.973l.204.028h23.528c40.075 34.706 66.44 84.347 70.435 140.184l.028.648v140.969a99.91 99.91 0 0 0-.028 2.284c0 128.538 104.21 232.748 232.748 232.748.809 0 1.626-.01 2.425-.028l-.122.002c.686.015 1.45.028 2.237.028 128.519 0 232.709-104.173 232.709-232.709 0-.827-.01-1.626-.028-2.463l.002.122V448.002c3.976-56.561 30.343-106.241 70.247-140.795l.263-.216h23.528c24.06-2.378 42.696-22.494 42.696-46.973s-18.64-44.623-42.508-46.973l-.204-.028z"/><glyph unicode="" glyph-name="angle-down" d="M512 176L84.569 608.021 195.392 720 512 399.975 828.608 720l110.823-111.979z"/><glyph unicode="" glyph-name="angle-right" horiz-adv-x="652" d="M595.668 448L167.122 24 56.034 133.934 373.492 448 56.034 762.066 167.122 872z"/><glyph unicode="" glyph-name="angle-up" horiz-adv-x="1216" d="M608.002 728l440.003-444.727L933.922 168l-325.92 329.438L282.082 168 168 283.273z"/><glyph unicode="" glyph-name="calendar" horiz-adv-x="939" d="M765.93 32.026H172.765a70.44 70.44 0 0 0-.674-.003c-46.121 0-83.57 37.144-84.059 83.145v.046l.419 582.387v.213c0 22.915 9.385 43.649 24.516 58.55l.012.012c15.22 15.106 36.19 24.439 59.34 24.439l.488-.002h42.361V864h84.733v-83.187h338.953V864h84.758v-83.187h42.327c.198.002.442.003.673.003 46.13 0 83.584-37.153 84.059-83.172V115.213c-.494-46.047-37.938-83.19-84.059-83.19-.234 0-.475.001-.706.004h.033zM140.757 617.425V87.2h657.231v530.225zM389.76 359.758H257.502v129.848H389.76V359.888z"/><glyph unicode="" glyph-name="focus" d="M512 8c-.413-.002-.908-.003-1.403-.003-108.818 0-207.359 44.015-278.784 115.207l.012-.012C160.297 193.881 116 291.982 116 400.43l.001.886v-.044c-.007.807-.011 1.767-.011 2.723 0 218.709 177.293 396 396 396s396-177.293 396-396c0-218.705-177.293-395.994-395.988-396h-.001zm0 699.096c-.343.002-.743.002-1.146.002-84.601 0-161.213-34.195-216.771-89.518l.013.012c-55.684-55.228-90.153-131.763-90.153-216.352s34.468-161.124 90.129-216.337l.024-.024C350.071 129.576 427.05 95.414 512 95.414s161.93 34.163 217.939 89.5l-.028-.028c55.684 55.228 90.153 131.763 90.153 216.352s-34.468 161.124-90.129 216.337l-.024.024c-55.522 55.339-132.122 89.555-216.716 89.555-.416 0-.84-.001-1.255-.003h.067zm-64.656-464.888l-139.92 138.744 46.6 46.512 93.744-93.072 216.944 216.272 46.64-46.304-264-262.112zm447.872 410.288l-202.36 168.456L749.592 888l202.4-168.664-56.736-66.84zm-766.432.416L72 719.792 274.4 888l56.32-67.048-201.936-167.998z"/><glyph unicode="" glyph-name="goals" horiz-adv-x="1037" d="M663.773 20.652v58.681H895.05V308.4h56.587V79.333c0-52.814-20.486-58.681-56.587-58.681zm-519.479 0c-52.839 0-58.706 20.356-58.706 56.453V308.4h58.598V77.123h229.133V20.645zm231.47 422.987c.027 79.462 64.45 143.878 143.92 143.878 79.483 0 143.92-64.436 143.92-143.92s-64.436-143.92-143.92-143.92h-.067c-79.451 0-143.853 64.402-143.853 143.853v.115-.007zm516.99 143.87v231.277h-228.98v56.561h229.025c52.772 0 58.732-20.439 58.732-56.561V587.509zm-807.166 0v229.15c0 52.731 20.356 58.681 56.453 58.681h231.277v-58.681H142.041v-229.15z"/><glyph unicode="" glyph-name="progress" horiz-adv-x="1395" d="M262.654 180.483v.026c0 28.98 23.5 52.483 52.483 52.483h297.888c28.98 0 52.483-23.5 52.483-52.483v-.026c0-28.98-23.5-52.483-52.483-52.483H315.137c-28.98 0-52.483 23.5-52.483 52.483zm-1.094 265.413v.026c0 28.98 23.5 52.483 52.483 52.483h766.744c28.98 0 52.483-23.5 52.483-52.483v-.026c0-28.98-23.5-52.483-52.483-52.483H314.043c-28.98 0-52.483 23.5-52.483 52.483zm1.094 269.595v.026c0 28.98 23.5 52.483 52.483 52.483h579.206c28.98 0 52.483-23.5 52.483-52.483v-.026c0-28.98-23.5-52.483-52.483-52.483H315.137c-28.98 0-52.483 23.5-52.483 52.483z"/><glyph unicode="" glyph-name="vertical-progress" horiz-adv-x="1224" d="M616.394 599.636c34.889-.021 63.162-28.297 63.162-63.2V111.955H553.199v424.481c0 34.896 28.294 63.2 63.2 63.2zM273.542 494.274c34.889-.021 63.162-28.297 63.162-63.2V111.861H210.347v319.213c0 34.896 28.294 63.2 63.2 63.2zm677.279 289.748c34.889-.021 63.162-28.297 63.162-63.2V111.956H887.626v608.866c0 34.896 28.294 63.2 63.2 63.2z"/><glyph unicode="" glyph-name="school" horiz-adv-x="1058" d="M123.94 56v67.841h809.866V56zm621.464 162.74v284.111h78.414V218.74zm-255.972 0v284.111h78.976V218.74zm-257.937 0v284.111h83.23V218.74zM123.94 584.049v73.133l404.962 182.821 404.913-182.821v-73.133z"/><glyph unicode="" glyph-name="pill" d="M150.599 86.765C106.835 131.143 79.81 192.127 79.81 259.429c0 5.934.209 11.82.621 17.649l-.043-.783c4.521 76.824 37.55 145.159 88.551 195.249l.042.041L488.48 791.119c50.152 51.019 118.484 84.03 194.486 88.517l.813.035c4.88.347 10.565.538 16.304.538 67.494 0 128.671-27.073 173.258-70.951l-.029.028C974.286 708.312 966.21 535.673 855.167 424.6l-319.7-319.7c-53.341-54.219-127.236-88.076-209.041-88.933l-.16-.002c-.851-.013-1.864-.02-2.871-.02-67.334 0-128.367 27.034-172.821 70.834l.027-.027zm43.753 359.525c-44.807-44.15-73.853-104.189-77.973-170.98l-.034-.744c-.339-4.459-.527-9.666-.527-14.916 0-57.466 23.029-109.559 60.358-147.546l-.027.027c87.064-86.831 236.74-78.856 333.912 18.316l156.023 156.224-315.667 315.636zm491.222 397.37c-67.548-4.078-127.614-33.139-171.691-77.973l-.033-.034-138.079-137.978 315.737-315.737 138.109 138.079c97.243 97.001 105.143 246.949 18.386 333.741-37.638 37.149-89.375 60.093-146.474 60.093-1.23 0-2.458-.013-3.692-.028l.189.003c-4.074 0-8.308 0-12.451-.171z"/><glyph unicode="" glyph-name="steth" horiz-adv-x="907" d="M605.484-22.505c-34.628 26.753-54.345 69.899-48.712 115.776 8.501 69.233 71.516 118.466 140.749 109.965 22.636-2.779 43.134-11.386 60.176-24.133l-.573.399c5.685 9.221 9.703 20.328 11.181 32.366 2.582 21.029-3.043 41.174-14.366 57.222l.052-.076c-11.729 15.267-29.325 25.995-49.928 28.525-20.802 2.554-40.652-3.743-55.77-15.939l-.021-.017-231.24-160.147c-38.155-32.364-88.661-49.67-141.898-44.414l-.227.024c-50.976 7.432-93.957 35.268-121.798 74.129l-.101.142c-36.735 47.566-41.059 164.786-33.376 217.868l-.144.223C77.735 423.053 56.389 492.606 65.329 565.42s46.479 135.138 99.979 177.095l-.009-.007L367.365 900.41c19.469 15.181 44.725 22.945 71.167 19.699s49.07-16.891 64.289-36.332l-.001.002 1.007-1.289c9.966 5.216 21.807 7.609 34.067 6.104 32.155-3.948 55.02-33.215 51.072-65.37s-33.215-55.02-65.37-51.072c-32.155 3.948-55.02 33.215-51.072 65.37a58.638 58.638 0 0 0 4.59 16.649l-.158-.399-4.774 6.071c-9.256 11.261-22.715 19.142-38.361 21.063s-30.613-2.47-42.345-11.177l.027.02-201.96-157.88c-29.336-22.83-53.052-52.86-68.276-87.845l-.597-1.534a20.544 20.544 0 0 0 4.787-4.329l-.004.005 218.548-301.691a18.328 18.328 0 0 0 3.185-9.084l.005-.118c46.09 3.75 87.62 20.68 121.529 47.32l.011.009 202.1 157.898c11.57 9.069 19.691 22.546 21.624 38.292s-2.685 30.788-11.719 42.388l.001-.002-4.77 6.105c-5.164-1.081-10.995-1.367-16.935-.663l-.012.001c-31.965 4.036-54.66 33.162-50.732 65.156 3.937 32.061 33.119 54.861 65.18 50.924s54.861-33.119 50.924-65.18c-1.481-12.065-6.538-22.819-13.978-31.33l.155.187 1.007-1.289c15.181-19.469 22.945-44.725 19.699-71.167s-16.891-49.07-36.332-64.289l.002.001-202.1-157.898c-53.613-41.931-123.228-63.393-196.118-54.443-54.508 6.693-103.125 29.445-141.692 62.932l.867-.712c-1.974-54.606 6.809-128.529 28.148-156.311 21.831-30.874 55.492-53.029 95.333-59.246l.229-.034c43.115-3.649 83.609 10.846 113.872 37.292l.145.129 231.037 160.172c22.82 17.949 52.502 27.148 83.586 23.332l.258-.032-.013.002.608-.075c31.24-3.837 57.943-20.039 75.807-43.1l.007-.009c17.151-23.902 25.748-54.183 21.865-85.807-2.564-20.886-10.269-39.886-21.69-55.888l.395.598-.025-.203-.405.05c19.033-25.207 28.694-57.596 24.534-91.474C801.09-8.343 738.057-57.589 668.806-49.086c-24.27 2.98-46.083 12.658-63.814 26.953l.494-.374zm24.81 166.879c-17.685-13.817-30.1-34.381-33.051-58.417-5.902-48.071 28.282-91.826 76.354-97.728 24.036-2.951 46.992 4.119 64.678 17.937l.872.681c17.45 13.806 29.689 34.233 32.616 58.076 5.903 48.072-28.283 91.828-76.355 97.73-24.229 2.975-47.362-4.234-65.104-18.271l-.01-.008zM104.142 559.902c-15.005-123.952 73.18-236.673 197.136-251.893l.036-.004.201-.025-194.498 268.915c-1.047-5.459-2.162-11.184-2.875-16.993zm549.594 111.254a19.365 19.365 0 0 1-7.331-12.949c-1.308-10.65 6.266-20.343 16.915-21.651s20.343 6.266 21.651 16.915c1.305 10.632-6.241 20.311-16.863 21.644h-.003a19.367 19.367 0 0 1-14.37-3.961zM518.111 844.982a19.365 19.365 0 0 1-7.236-12.874c-1.308-10.65 6.266-20.343 16.915-21.651a19.365 19.365 0 0 1 14.226 3.894l-.002-.002a19.37 19.37 0 0 1 7.332 12.949c1.308 10.65-6.266 20.343-16.915 21.651l-.124.015.006-.001-.135.017a18.758 18.758 0 0 1-14.062-3.995l-.004-.003z"/><glyph unicode="" glyph-name="plus-outline" d="M512 824.61c-100.597 0-195.173-39.177-266.303-110.307S135.39 548.591 135.39 448c0-100.597 39.177-195.173 110.307-266.303S411.409 71.39 512 71.39c100.597 0 195.173 39.177 266.303 110.307S888.61 347.409 888.61 448c0 100.597-39.177 195.173-110.307 266.303S612.591 824.61 512 824.61zm0 31.39c225.336 0 408-182.664 408-408S737.336 40 512 40 104 222.664 104 448s182.664 408 408 408zM335.402 478.666H694.35c13.521 0 24.48-10.959 24.48-24.48s-10.959-24.48-24.48-24.48H335.402c-13.521 0-24.48 10.959-24.48 24.48s10.959 24.48 24.48 24.48zm203.934 155V274.718c0-13.521-10.959-24.48-24.48-24.48s-24.48 10.959-24.48 24.48v358.948c0 13.521 10.959 24.48 24.48 24.48s24.48-10.959 24.48-24.48z"/><glyph unicode="" glyph-name="close" d="M273.15 752l542.813-542.813-65.125-65.125-542.813 542.813L273.15 752zM816 686.85L273.187 144.037l-65.125 65.125 542.813 542.813L816 686.85z"/><glyph unicode="" glyph-name="needle" d="M85.38 21.707a18.494 18.494 0 0 0-5.369 13.052 18.492 18.492 0 0 0 5.751 13.429l.009.008L206.165 168.72l-25.903 98.858c-.621 2.957-1.336 5.476-2.216 7.911l.132-.405c-2.532 5.14-4.019 11.187-4.019 17.577 0 10.726 4.176 20.487 10.989 27.729l-.023-.025 373.842 374.034-41.142 41.142a18.678 18.678 0 0 0-5.483 13.25c0 10.342 8.391 18.733 18.733 18.733a18.7 18.7 0 0 0 13.25-5.483l281.604-281.963a18.678 18.678 0 0 0 5.483-13.25c0-10.342-8.391-18.733-18.733-18.733a18.7 18.7 0 0 0-13.25 5.483l-40.979 40.95-373.813-374.034c-6.206-6.481-14.931-10.504-24.596-10.504-.137 0-.283.001-.42.003h.025a65.264 65.264 0 0 0-19.614 3.397l.459-.135c-2.45.557-5.256 1.499-8.061 2.056l-100.299 25.942L111.838 21.315a18.05 18.05 0 0 0-12.823-5.319h-.035.002a19.244 19.244 0 0 0-13.603 5.705l-.002.002zm126.242 272.016c.192-.355 1.499-4.862 2.45-8.253.749-2.642 1.701-5.448 2.479-8.647l25.353-95.824a8.22 8.22 0 0 0 2.098-1.318l-.013.011a19.44 19.44 0 0 0 1.843-2.891l.05-.107 95.399-24.597c3.909-.797 7.124-1.651 10.274-2.673l-.676.189c2.998-.945 7.859-1.863 8.647-2.056l371.921 373.548-146.53 146.428-29.852-29.852 45.091-45.062a18.678 18.678 0 0 0 5.483-13.25c0-10.342-8.391-18.733-18.733-18.733a18.7 18.7 0 0 0-13.25 5.483l-45.091 45.062-39.153-39.153 35.694-35.694a18.678 18.678 0 0 0 5.483-13.25c0-10.342-8.391-18.733-18.733-18.733a18.7 18.7 0 0 0-13.25 5.483l-35.694 35.694-41.728-41.891c3.959-.61 7.425-2.349 10.161-4.876l-.015.014 56.349-56.349a18.678 18.678 0 0 0 5.483-13.25c0-10.342-8.391-18.733-18.733-18.733a18.7 18.7 0 0 0-13.25 5.483l-56.448 56.217a19.102 19.102 0 0 0-4.884 10.009l-.017.109-53.703-53.671a18.51 18.51 0 0 0 10.156-4.899l37.578-37.549a18.678 18.678 0 0 0 5.483-13.25c0-10.342-8.391-18.733-18.733-18.733a18.7 18.7 0 0 0-13.25 5.483l-37.616 37.452a19.099 19.099 0 0 0-4.846 10.039l-.016.107-51.096-51.192 63.952-63.856a18.678 18.678 0 0 0 5.483-13.25c0-10.342-8.391-18.733-18.733-18.733a18.7 18.7 0 0 0-13.25 5.483l-63.952 63.856zm531.261 310.351a18.494 18.494 0 0 0-5.369 13.052 18.492 18.492 0 0 0 5.751 13.429l.009.008 99.348 99.348-48.646 48.646-99.771-99.742a18.684 18.684 0 0 0-13.048-5.293c-10.344 0-18.735 8.392-18.735 18.735 0 5.267 2.18 10.032 5.682 13.437l.005.005 99.386 99.252-43.035 43.333c-3.213 3.394-5.198 7.992-5.198 13.048s1.975 9.654 5.207 13.058l-.01-.01a18.82 18.82 0 0 0 13.446 5.622 18.82 18.82 0 0 0 13.052-5.236l187.859-187.859a18.73 18.73 0 0 0 5.459-13.25c0-10.388-8.417-18.805-18.805-18.805a18.772 18.772 0 0 0-13.344 5.554l-43.007 43.007-99.771-99.742a18.488 18.488 0 0 0-13.053-5.375 18.475 18.475 0 0 0-13.428 5.76l-.009.009z"/><glyph unicode="" glyph-name="message" d="M710.458 94.555c-23.55-4.155-50.684-6.545-78.371-6.572h-.029a395.94 395.94 0 0 0-5.071-.03c-82.367 0-159.414 22.777-225.187 62.378l1.969-1.101c6.137 0 12.107-1.26 18.298-1.26 249.601 0 457.457 158.877 501.174 368.374 41.414-40.288 67.505-96.139 68.805-158.086l.004-.242c-.963-58.166-23.886-110.793-60.811-150.121l.111.12h.712V-32zM92.265 422.715c-37.102 48.039-59.67 108.956-60.264 175.121l-.001.137C32 780.079 206.6 928 422.016 928s390.016-147.921 390.016-330.027-174.6-330.027-390.016-330.027l-.72-.001c-60.311 0-117.833 11.935-170.335 33.572l2.972-1.086-161.67-92.478z"/><glyph unicode="" glyph-name="edit" d="M518.154 644.928L290.436 411.095l-98.458-283.137 283.09 92.316 227.718 227.718zm289.232 18.449l-80.009 80.009c-13.706 15.144-33.441 24.61-55.381 24.61s-41.66-9.458-55.328-24.539l-67.756-67.756 184.635-190.774 73.822 73.822c14.856 13.938 24.227 33.545 24.659 55.341l.002.078c-1.895 19.624-10.978 36.812-24.563 49.146l-.063.063z"/><glyph unicode="" glyph-name="menu" d="M982.636 489.364H41.364C18.52 489.364 0 470.846 0 448s18.52-41.364 41.364-41.364h941.272c22.846 0 41.364 18.518 41.364 41.364 0 22.844-18.518 41.364-41.364 41.364zm0 313.758H41.364C18.52 803.122 0 784.602 0 761.758s18.52-41.364 41.364-41.364h941.272c22.846 0 41.364 18.52 41.364 41.364s-18.518 41.364-41.364 41.364zm0-627.516H41.364C18.52 175.606 0 157.088 0 134.242s18.52-41.364 41.364-41.364h941.272c22.846 0 41.364 18.518 41.364 41.364s-18.518 41.364-41.364 41.364z"/></font>
</defs>
</svg>
